# xmcd
#
# Track frame offsets:
#	150
#	20736
#	43011
#	62040
#	78162
#	92428
#	116756
#	137738
#
# Disc length: 2159 seconds
#
# Revision: 0
# Processed by: cddbd v1.5.2PL0 Copyright (c) Steve Scherf et al.
# Submitted via: EasyCDDAExtractor 11.0.0.1
#
DISCID=63086d08
DTITLE=Eskarpines
DYEAR=2006
DGENRE=Ska
TTITLE0=Revolución
TTITLE1=La Muerte
TTITLE2=Solo un recuerdo
TTITLE3=Comprate un perro
TTITLE4=Superchango
TTITLE5=Juntos
TTITLE6=Para qué
TTITLE7=Pasta
EXTD=
EXTT0=
EXTT1=
EXTT2=
EXTT3=
EXTT4=
EXTT5=
EXTT6=
EXTT7=
PLAYORDER=
